<svg width="18" height="18" viewBox="0 0 18 18" fill="none" xmlns="http://www.w3.org/2000/svg">
<path d="M17.4375 6.23438C17.5406 6.23438 17.625 6.15 17.625 6.04688V4.64062C17.625 4.5375 17.5406 4.45312 17.4375 4.45312H13.5938V0.5625C13.5938 0.459375 13.5094 0.375 13.4062 0.375H11.9062C11.8031 0.375 11.7188 0.459375 11.7188 0.5625V4.45312H6.375V0.5625C6.375 0.459375 6.29063 0.375 6.1875 0.375H4.6875C4.58437 0.375 4.5 0.459375 4.5 0.5625V4.45312H0.5625C0.459375 4.45312 0.375 4.5375 0.375 4.64062V6.04688C0.375 6.15 0.459375 6.23438 0.5625 6.23438H4.5V11.7656H0.5625C0.459375 11.7656 0.375 11.85 0.375 11.9531V13.3594C0.375 13.4625 0.459375 13.5469 0.5625 13.5469H4.5V17.4375C4.5 17.5406 4.58437 17.625 4.6875 17.625H6.1875C6.29063 17.625 6.375 17.5406 6.375 17.4375V13.5469H11.7188V17.4375C11.7188 17.5406 11.8031 17.625 11.9062 17.625H13.4062C13.5094 17.625 13.5938 17.5406 13.5938 17.4375V13.5469H17.4375C17.5406 13.5469 17.625 13.4625 17.625 13.3594V11.9531C17.625 11.85 17.5406 11.7656 17.4375 11.7656H13.5938V6.23438H17.4375ZM11.7188 11.7656H6.375V6.23438H11.7188V11.7656Z" fill="#262626"/>
</svg>
