<svg width="18" height="25" viewBox="0 0 18 25" fill="none" xmlns="http://www.w3.org/2000/svg">
<path d="M17.4984 7.57344L10.9875 0.999219C10.882 0.89375 10.7672 0.804688 10.643 0.729688C10.6102 0.710938 10.5773 0.692188 10.5422 0.675781C10.5211 0.664062 10.4977 0.654687 10.4766 0.645312C10.2656 0.551562 10.0336 0.5 9.79688 0.5H1.71094C0.778125 0.5 0 1.25469 0 2.1875V22.8125C0 23.7453 0.778125 24.5 1.71094 24.5H16.3125C17.2453 24.5 17.9766 23.7453 17.9766 22.8125V8.76172C17.9766 8.31641 17.8125 7.88984 17.4984 7.57344ZM10.6641 3.0875L15.3703 7.8125H10.6641V3.0875ZM16.2891 22.8125H1.6875V2.1875H8.97656V7.8125C8.97656 8.74531 9.75469 9.5 10.6875 9.5H16.2891V22.8125Z" fill="#262626"/>
</svg>
