<svg width="18" height="18" viewBox="0 0 18 18" fill="none" xmlns="http://www.w3.org/2000/svg">
<path d="M16.5621 8.54687C15.9442 7.24503 15.2089 6.18331 14.3561 5.36171L13.4617 6.25609C14.191 6.95306 14.8263 7.86484 15.3756 9.00038C13.9131 12.0273 11.8371 13.4652 9.00004 13.4652C8.14844 13.4652 7.36404 13.3341 6.64686 13.0718L5.67777 14.0409C6.67387 14.5009 7.78129 14.7309 9.00004 14.7309C12.3786 14.7309 14.8993 12.9713 16.5621 9.45214C16.629 9.31061 16.6637 9.15603 16.6637 8.99951C16.6637 8.84298 16.629 8.6884 16.5621 8.54687ZM15.4447 2.91062L14.6954 2.16038C14.6823 2.14731 14.6668 2.13694 14.6497 2.12986C14.6326 2.12278 14.6143 2.11914 14.5959 2.11914C14.5774 2.11914 14.5591 2.12278 14.542 2.12986C14.5249 2.13694 14.5094 2.14731 14.4964 2.16038L12.5738 4.08202C11.5139 3.54062 10.3226 3.26992 9.00004 3.26992C5.62152 3.26992 3.10082 5.02949 1.43793 8.54863C1.37109 8.69016 1.33643 8.84474 1.33643 9.00126C1.33643 9.15779 1.37109 9.31237 1.43793 9.4539C2.10227 10.8531 2.90207 11.9747 3.83735 12.8185L1.97723 14.6781C1.95088 14.7045 1.93607 14.7402 1.93607 14.7775C1.93607 14.8148 1.95088 14.8506 1.97723 14.8769L2.72764 15.6273C2.75401 15.6537 2.78976 15.6685 2.82704 15.6685C2.86432 15.6685 2.90008 15.6537 2.92645 15.6273L15.4447 3.1096C15.4578 3.09654 15.4682 3.08103 15.4752 3.06396C15.4823 3.04689 15.486 3.02859 15.486 3.01011C15.486 2.99163 15.4823 2.97333 15.4752 2.95626C15.4682 2.93919 15.4578 2.92368 15.4447 2.91062ZM2.62445 9.00038C4.08871 5.97343 6.16469 4.53554 9.00004 4.53554C9.95875 4.53554 10.8305 4.70007 11.6213 5.03458L10.3855 6.27033C9.80032 5.95807 9.13022 5.84219 8.47411 5.93976C7.818 6.03734 7.21063 6.3432 6.74159 6.81224C6.27255 7.28129 5.96668 7.88866 5.8691 8.54477C5.77153 9.20088 5.88742 9.87097 6.19967 10.4562L4.7333 11.9226C3.92172 11.2063 3.22211 10.2358 2.62445 9.00038ZM6.96098 9.00038C6.96129 8.69042 7.03471 8.3849 7.17527 8.10864C7.31584 7.83238 7.51959 7.59318 7.76998 7.41046C8.02036 7.22774 8.31032 7.10666 8.61629 7.05706C8.92226 7.00745 9.23561 7.03072 9.5309 7.12497L7.05432 9.60156C6.99224 9.40721 6.96075 9.2044 6.96098 9.00038Z" fill="#8C8C8C"/>
<path d="M8.92994 10.969C8.86912 10.969 8.80918 10.9662 8.74976 10.9607L7.82129 11.8892C8.37973 12.1031 8.98816 12.1506 9.57303 12.026C10.1579 11.9015 10.6942 11.6102 11.117 11.1873C11.5399 10.7645 11.8312 10.2282 11.9557 9.64335C12.0803 9.05847 12.0328 8.45004 11.8189 7.8916L10.8904 8.82008C10.8959 8.87949 10.8987 8.93943 10.8987 9.00025C10.8988 9.25883 10.848 9.5149 10.7491 9.75382C10.6502 9.99274 10.5052 10.2098 10.3224 10.3927C10.1395 10.5755 9.92243 10.7205 9.68351 10.8194C9.44459 10.9183 9.18852 10.9691 8.92994 10.969Z" fill="#8C8C8C"/>
</svg>
