<svg width="14" height="14" viewBox="0 0 14 14" fill="none" xmlns="http://www.w3.org/2000/svg">
<path d="M12.75 0.75H1.25C0.973437 0.75 0.75 0.973437 0.75 1.25V12.75C0.75 13.0266 0.973437 13.25 1.25 13.25H12.75C13.0266 13.25 13.25 13.0266 13.25 12.75V1.25C13.25 0.973437 13.0266 0.75 12.75 0.75ZM12.25 12.25H9.37344V8.40938H10.9984L11.2422 6.52344H9.37344V5.31875C9.37344 4.77187 9.525 4.4 10.3078 4.4H11.3062V2.7125C11.1328 2.68906 10.5406 2.6375 9.85 2.6375C8.40938 2.6375 7.42344 3.51719 7.42344 5.13125V6.52187H5.79531V8.40781H7.425V12.25H1.75V1.75H12.25V12.25Z" fill="#8C8C8C"/>
</svg>
