<svg width="16" height="16" viewBox="0 0 16 16" fill="none" xmlns="http://www.w3.org/2000/svg">
<rect x="1" y="1" width="14" height="14" rx="7" fill="#FA8C16"/>
<path d="M10.7095 5.54321C10.7095 5.47446 10.6533 5.41821 10.5845 5.41821L9.55326 5.4229L8.00014 7.27446L6.44858 5.42446L5.41577 5.41978C5.34702 5.41978 5.29077 5.47446 5.29077 5.54478C5.29077 5.57446 5.30171 5.60259 5.32046 5.62603L7.35326 8.0479L5.32046 10.4682C5.30158 10.4911 5.2911 10.5198 5.29077 10.5495C5.29077 10.6182 5.34702 10.6745 5.41577 10.6745L6.44858 10.6698L8.00014 8.81821L9.55169 10.6682L10.5829 10.6729C10.6517 10.6729 10.7079 10.6182 10.7079 10.5479C10.7079 10.5182 10.697 10.4901 10.6783 10.4667L8.64857 8.04634L10.6814 5.62446C10.7001 5.60259 10.7095 5.5729 10.7095 5.54321Z" fill="white"/>
<rect x="1" y="1" width="14" height="14" rx="7" stroke="white" stroke-width="2"/>
</svg>
