<svg width="16" height="16" viewBox="0 0 16 16" fill="none" xmlns="http://www.w3.org/2000/svg">
<path d="M7.99934 4.79579C6.2259 4.79579 4.79465 6.22704 4.79465 8.00048C4.79465 9.77391 6.2259 11.2052 7.99934 11.2052C9.77278 11.2052 11.204 9.77391 11.204 8.00048C11.204 6.22704 9.77278 4.79579 7.99934 4.79579ZM7.99934 10.0833C6.85247 10.0833 5.91653 9.14735 5.91653 8.00048C5.91653 6.8536 6.85247 5.91766 7.99934 5.91766C9.14622 5.91766 10.0822 6.8536 10.0822 8.00048C10.0822 9.14735 9.14622 10.0833 7.99934 10.0833ZM11.3353 3.91766C10.9212 3.91766 10.5868 4.25204 10.5868 4.6661C10.5868 5.08016 10.9212 5.41454 11.3353 5.41454C11.7493 5.41454 12.0837 5.08173 12.0837 4.6661C12.0838 4.56778 12.0646 4.4704 12.027 4.37954C11.9894 4.28868 11.9343 4.20612 11.8648 4.1366C11.7953 4.06708 11.7127 4.01195 11.6218 3.97438C11.531 3.93682 11.4336 3.91754 11.3353 3.91766ZM14.2462 8.00048C14.2462 7.13798 14.254 6.28329 14.2056 5.42235C14.1572 4.42235 13.929 3.53485 13.1978 2.8036C12.465 2.07079 11.579 1.84423 10.579 1.79579C9.71653 1.74735 8.86184 1.75516 8.0009 1.75516C7.1384 1.75516 6.28372 1.74735 5.42278 1.79579C4.42278 1.84423 3.53528 2.07235 2.80403 2.8036C2.07122 3.53641 1.84465 4.42235 1.79622 5.42235C1.74778 6.28485 1.75559 7.13954 1.75559 8.00048C1.75559 8.86141 1.74778 9.71766 1.79622 10.5786C1.84465 11.5786 2.07278 12.4661 2.80403 13.1974C3.53684 13.9302 4.42278 14.1567 5.42278 14.2052C6.28528 14.2536 7.13997 14.2458 8.0009 14.2458C8.8634 14.2458 9.71809 14.2536 10.579 14.2052C11.579 14.1567 12.4665 13.9286 13.1978 13.1974C13.9306 12.4645 14.1572 11.5786 14.2056 10.5786C14.2556 9.71766 14.2462 8.86298 14.2462 8.00048ZM12.8712 11.6849C12.7572 11.9692 12.6197 12.1817 12.3993 12.4005C12.179 12.6208 11.9681 12.7583 11.6837 12.8724C10.8618 13.1989 8.91028 13.1255 7.99934 13.1255C7.0884 13.1255 5.13528 13.1989 4.3134 12.8739C4.02903 12.7599 3.81653 12.6224 3.59778 12.402C3.37747 12.1817 3.23997 11.9708 3.1259 11.6864C2.8009 10.863 2.87434 8.91141 2.87434 8.00048C2.87434 7.08954 2.8009 5.13641 3.1259 4.31454C3.23997 4.03016 3.37747 3.81766 3.59778 3.59891C3.81809 3.38016 4.02903 3.2411 4.3134 3.12704C5.13528 2.80204 7.0884 2.87548 7.99934 2.87548C8.91028 2.87548 10.8634 2.80204 11.6853 3.12704C11.9697 3.2411 12.1822 3.3786 12.4009 3.59891C12.6212 3.81923 12.7587 4.03016 12.8728 4.31454C13.1978 5.13641 13.1243 7.08954 13.1243 8.00048C13.1243 8.91141 13.1978 10.863 12.8712 11.6849Z" fill="#8C8C8C"/>
</svg>
