<svg width="16" height="16" viewBox="0 0 16 16" fill="none" xmlns="http://www.w3.org/2000/svg">
<path fill-rule="evenodd" clip-rule="evenodd" d="M7.66667 5.33333C6.44234 5.33333 5.33333 6.45943 5.33333 8C5.33333 9.54057 6.44234 10.6667 7.66667 10.6667C8.891 10.6667 10 9.54057 10 8C10 6.45943 8.891 5.33333 7.66667 5.33333ZM4 8C4 5.85867 5.57729 4 7.66667 4C9.75604 4 11.3333 5.85867 11.3333 8C11.3333 10.1413 9.75604 12 7.66667 12C5.57729 12 4 10.1413 4 8Z" fill="#8C8C8C"/>
<path fill-rule="evenodd" clip-rule="evenodd" d="M9.61287 2.22078C8.34983 1.8683 7.00608 1.93931 5.78721 2.42294C4.56835 2.90656 3.54148 3.77618 2.8637 4.89874C2.18593 6.02131 1.89457 7.33501 2.0342 8.63886C2.17384 9.94271 2.73677 11.1649 3.63689 12.1185C4.537 13.0721 5.72473 13.7045 7.01837 13.9191C8.31201 14.1336 9.64032 13.9185 10.8001 13.3066L11.4223 14.4858C10.0048 15.2337 8.38132 15.4967 6.80021 15.2345C5.2191 14.9722 3.76743 14.1992 2.66729 13.0337C1.56715 11.8682 0.879114 10.3744 0.708451 8.78084C0.537788 7.18724 0.893892 5.58161 1.72228 4.20958C2.55068 2.83756 3.80574 1.7747 5.29546 1.1836C6.78519 0.592499 8.42755 0.505714 9.97127 0.936519C11.515 1.36732 12.8751 2.292 13.8435 3.56908C14.8118 4.84616 15.3352 6.40531 15.3334 8.00802L14.6667 8.00729H15.3334C15.3334 8.00754 15.3334 8.00778 15.3334 8.00802C15.3332 10.2415 14.2588 11.5797 12.8672 11.7679C11.5297 11.9489 10.2223 10.9624 10.2223 9.34062V4.89618H11.5556V9.34062C11.5556 10.141 12.1371 10.5212 12.6885 10.4466C13.1856 10.3794 14.0001 9.84 14.0001 8.00729V8.00656C14.0015 6.69525 13.5733 5.41957 12.781 4.37469C11.9887 3.32981 10.8759 2.57326 9.61287 2.22078Z" fill="#8C8C8C"/>
</svg>
