<svg width="20" height="20" viewBox="0 0 20 20" fill="none" xmlns="http://www.w3.org/2000/svg">
<path d="M19.2836 7.27462L13.3328 6.40977L10.6726 1.01681C10.6 0.869149 10.4805 0.749618 10.3328 0.676962C9.96248 0.494149 9.51248 0.646493 9.32733 1.01681L6.66717 6.40977L0.716389 7.27462C0.552327 7.29806 0.402327 7.3754 0.287483 7.49259C0.148643 7.63529 0.0721362 7.82728 0.074773 8.02636C0.0774098 8.22544 0.158975 8.41533 0.301545 8.55431L4.60701 12.752L3.58983 18.6793C3.56597 18.8172 3.58123 18.959 3.63387 19.0886C3.68651 19.2183 3.77442 19.3306 3.88764 19.4128C4.00086 19.4951 4.13486 19.5439 4.27444 19.5539C4.41401 19.5638 4.55358 19.5345 4.67733 19.4692L9.99998 16.6707L15.3226 19.4692C15.468 19.5465 15.6367 19.5723 15.7984 19.5441C16.2062 19.4738 16.4805 19.0871 16.4101 18.6793L15.393 12.752L19.6984 8.55431C19.8156 8.43946 19.893 8.28946 19.9164 8.1254C19.9797 7.71524 19.6937 7.33556 19.2836 7.27462Z" fill="white"/>
</svg>
