<svg width="18" height="18" viewBox="0 0 18 18" fill="none" xmlns="http://www.w3.org/2000/svg">
<path d="M10.4539 12.596C10.4187 12.5611 10.3711 12.5415 10.3215 12.5415C10.2719 12.5415 10.2243 12.5611 10.1891 12.596L7.46565 15.3194C6.20471 16.5804 4.07659 16.714 2.6844 15.3194C1.28987 13.9249 1.42346 11.7991 2.6844 10.5382L5.40784 7.81475C5.48049 7.74209 5.48049 7.62256 5.40784 7.5499L4.47502 6.61709C4.43978 6.5822 4.3922 6.56262 4.3426 6.56262C4.29301 6.56262 4.24542 6.5822 4.21018 6.61709L1.48674 9.34053C-0.496069 11.3233 -0.496069 14.5319 1.48674 16.5124C3.46956 18.4929 6.67815 18.4952 8.65862 16.5124L11.3821 13.789C11.4547 13.7163 11.4547 13.5968 11.3821 13.5241L10.4539 12.596ZM16.5149 1.48662C14.5321 -0.496191 11.3235 -0.496191 9.34299 1.48662L6.61721 4.21006C6.58232 4.2453 6.56274 4.29289 6.56274 4.34248C6.56274 4.39207 6.58232 4.43966 6.61721 4.4749L7.54768 5.40537C7.62034 5.47803 7.73987 5.47803 7.81252 5.40537L10.536 2.68193C11.7969 1.421 13.925 1.2874 15.3172 2.68193C16.7117 4.07647 16.5781 6.20225 15.3172 7.46318L12.5938 10.1866C12.5589 10.2219 12.5393 10.2695 12.5393 10.319C12.5393 10.3686 12.5589 10.4162 12.5938 10.4515L13.5266 11.3843C13.5992 11.4569 13.7188 11.4569 13.7914 11.3843L16.5149 8.66084C18.4953 6.67803 18.4953 3.46943 16.5149 1.48662ZM11.3 5.72647C11.2648 5.69157 11.2172 5.672 11.1676 5.672C11.118 5.672 11.0704 5.69157 11.0352 5.72647L5.72659 11.0327C5.69169 11.068 5.67212 11.1155 5.67212 11.1651C5.67212 11.2147 5.69169 11.2623 5.72659 11.2976L6.65471 12.2257C6.72737 12.2983 6.8469 12.2983 6.91956 12.2257L12.2258 6.91944C12.2985 6.84678 12.2985 6.72725 12.2258 6.65459L11.3 5.72647Z" fill="#262626"/>
</svg>
