<svg width="14" height="18" viewBox="0 0 14 18" fill="none" xmlns="http://www.w3.org/2000/svg">
<path d="M11.3547 8.28281C12.1422 7.4625 12.625 6.35391 12.625 5.13516V4.89609C12.625 2.37422 10.5602 0.328125 8.01484 0.328125H1.07969C0.725781 0.328125 0.4375 0.616406 0.4375 0.970312V16.8867C0.4375 17.2687 0.746875 17.5781 1.12891 17.5781H8.59844C11.3406 17.5781 13.5625 15.3703 13.5625 12.6445V12.3867C13.5625 10.6758 12.6859 9.16875 11.3547 8.28281ZM2.6875 2.57812H7.95391C9.29219 2.57812 10.375 3.61875 10.375 4.90547V5.12812C10.375 6.4125 9.28984 7.45547 7.95391 7.45547H2.6875V2.57812ZM11.2797 12.6422C11.2797 14.1164 10.068 15.3117 8.57266 15.3117H2.6875V9.71953H8.57266C10.068 9.71953 11.2797 10.9148 11.2797 12.3891V12.6422Z" fill="#262626"/>
</svg>
