<svg width="14" height="14" viewBox="0 0 14 14" fill="none" xmlns="http://www.w3.org/2000/svg">
<path d="M9.37084 4.85034C9.37084 4.79019 9.32163 4.74097 9.26147 4.74097L8.35913 4.74507L7.00015 6.36519L5.64254 4.74644L4.73883 4.74233C4.67867 4.74233 4.62946 4.79019 4.62946 4.85171C4.62946 4.87769 4.63903 4.9023 4.65543 4.9228L6.43414 7.04194L4.65543 9.15972C4.63891 9.17976 4.62974 9.20484 4.62946 9.23081C4.62946 9.29097 4.67867 9.34019 4.73883 9.34019L5.64254 9.33608L7.00015 7.71597L8.35776 9.33472L9.2601 9.33882C9.32026 9.33882 9.36948 9.29097 9.36948 9.22944C9.36948 9.20347 9.35991 9.17886 9.3435 9.15835L7.56753 7.04058L9.34623 4.92144C9.36264 4.9023 9.37084 4.87632 9.37084 4.85034Z" fill="#BFBFBF"/>
<path d="M7 0.888672C3.61758 0.888672 0.875 3.63125 0.875 7.01367C0.875 10.3961 3.61758 13.1387 7 13.1387C10.3824 13.1387 13.125 10.3961 13.125 7.01367C13.125 3.63125 10.3824 0.888672 7 0.888672ZM7 12.0996C4.1918 12.0996 1.91406 9.82187 1.91406 7.01367C1.91406 4.20547 4.1918 1.92773 7 1.92773C9.8082 1.92773 12.0859 4.20547 12.0859 7.01367C12.0859 9.82187 9.8082 12.0996 7 12.0996Z" fill="#BFBFBF"/>
</svg>
