<svg width="24" height="25" viewBox="0 0 24 25" fill="none" xmlns="http://www.w3.org/2000/svg">
<g clip-path="url(#clip0)">
<path d="M20.4984 7.57344L13.9875 0.999219C13.882 0.89375 13.7672 0.804688 13.643 0.729688C13.6102 0.710938 13.5773 0.692188 13.5422 0.675781C13.5211 0.664062 13.4977 0.654687 13.4766 0.645312C13.2656 0.551562 13.0336 0.5 12.7969 0.5H4.71094C3.77813 0.5 3 1.25469 3 2.1875V22.8125C3 23.7453 3.77813 24.5 4.71094 24.5H19.3125C20.2453 24.5 20.9766 23.7453 20.9766 22.8125V8.76172C20.9766 8.31641 20.8125 7.88984 20.4984 7.57344ZM13.6641 3.0875L18.3703 7.8125H13.6641V3.0875ZM19.2891 22.8125H4.6875V2.1875H11.9766V7.8125C11.9766 8.74531 12.7547 9.5 13.6875 9.5H19.2891V22.8125Z" fill="#262626"/>
<path d="M6.99997 18.8239H8.2549L8.97743 17.607H9.12955L9.85208 18.8239H11.107L9.81405 16.8465L11.031 14.9451H9.77603L9.12955 16.0479H8.97743L8.33096 14.9451H7.07603L8.29293 16.8465L6.99997 18.8239Z" fill="#262626"/>
<path d="M11.5654 18.8239H12.7063V13.5H11.5654V18.8239Z" fill="#262626"/>
<path d="M13.3929 17.607C13.4081 17.8504 13.4841 18.0634 13.6134 18.2535C13.8416 18.5806 14.2599 18.9 15.1422 18.9C16.283 18.9 16.8534 18.3296 16.8534 17.6831C16.8534 16.991 16.4427 16.5803 15.5605 16.4662L14.99 16.3901C14.6478 16.3369 14.5337 16.238 14.5337 16.0859C14.5337 15.8958 14.7162 15.7437 15.1041 15.7437C15.3703 15.7437 15.5224 15.8349 15.6061 15.9186C15.6593 15.9718 15.6898 16.0251 15.7126 16.0859H16.8154C16.785 15.8577 16.7013 15.6524 16.572 15.4775C16.3515 15.1732 15.9179 14.869 15.1041 14.869C14.0013 14.869 13.4309 15.4394 13.4309 16.0859C13.4309 16.7324 13.8036 17.1051 14.7238 17.2268L15.2943 17.3028C15.6365 17.3561 15.7506 17.4473 15.7506 17.6831C15.7506 17.8732 15.5681 18.0634 15.1422 18.0634C14.8151 18.0634 14.663 17.9493 14.5793 17.8352C14.5261 17.7668 14.5033 17.6907 14.4957 17.607H13.3929Z" fill="#262626"/>
</g>
<defs>
<clipPath id="clip0">
<rect width="24" height="24" fill="white" transform="translate(0 0.5)"/>
</clipPath>
</defs>
</svg>
