<svg width="16" height="16" viewBox="0 0 16 16" fill="none" xmlns="http://www.w3.org/2000/svg">
<path d="M13.9917 11.3423L11.6748 9.82738C11.4425 9.68019 11.1624 9.62816 10.8927 9.68209C10.6231 9.73602 10.3846 9.89177 10.2267 10.117C9.69207 10.763 9.04602 11.8324 6.61775 9.4041C4.18949 6.97584 5.23654 6.30751 5.88259 5.77285C6.10781 5.61503 6.26356 5.37651 6.31749 5.10684C6.37143 4.83718 6.31939 4.5571 6.1722 4.3248L4.65732 2.00792C4.45682 1.71831 4.18949 1.25048 3.56572 1.33959C2.94194 1.4287 1.31567 2.34209 1.31567 4.34708C1.31567 6.35207 2.89739 8.80261 5.05832 10.9635C7.21925 13.1245 9.66979 14.6839 11.6525 14.6839C13.6352 14.6839 14.5932 12.9017 14.66 12.4561C14.7268 12.0106 14.2813 11.5428 13.9917 11.3423Z" stroke="#8C8C8C" stroke-width="1.18814" stroke-miterlimit="10"/>
</svg>
