<svg width="18" height="18" viewBox="0 0 18 18" fill="none" xmlns="http://www.w3.org/2000/svg">
<path d="M17.5845 6.18984L11.8095 0.414844C11.6572 0.2625 11.458 0.1875 11.2588 0.1875C11.0595 0.1875 10.8603 0.2625 10.708 0.414844L6.93219 4.19297C6.64625 4.16016 6.35797 4.14609 6.06969 4.14609C4.35406 4.14609 2.63844 4.71094 1.22984 5.84063C1.14455 5.90912 1.07463 5.99481 1.02466 6.09212C0.974683 6.18943 0.94577 6.29618 0.9398 6.40541C0.93383 6.51464 0.950937 6.6239 0.990008 6.72608C1.02908 6.82826 1.08924 6.92106 1.16656 6.99844L5.42516 11.257L0.37672 16.3008C0.314855 16.3623 0.276675 16.4436 0.268907 16.5305L0.18922 17.4023C0.168126 17.6227 0.343907 17.8102 0.561876 17.8102C0.573595 17.8102 0.585313 17.8102 0.597032 17.8078L1.46891 17.7281C1.55563 17.7211 1.63766 17.6813 1.69859 17.6203L6.74703 12.5719L11.0056 16.8305C11.158 16.9828 11.3572 17.0578 11.5564 17.0578C11.7838 17.0578 12.0088 16.9594 12.1634 16.7672C13.483 15.1195 14.0314 13.057 13.8088 11.0625L17.5845 7.28672C17.8869 6.98672 17.8869 6.49453 17.5845 6.18984ZM12.6134 9.87422L12.0392 10.4484L12.1283 11.2547C12.2679 12.5017 12.0191 13.7615 11.4158 14.8617L3.14 6.58125C3.44234 6.41484 3.75641 6.27422 4.08453 6.16172C4.72203 5.94141 5.39 5.83125 6.06969 5.83125C6.29469 5.83125 6.52203 5.84297 6.74703 5.86875L7.55328 5.95781L8.1275 5.38359L11.2611 2.25L15.7494 6.73828L12.6134 9.87422Z" fill="#262626"/>
</svg>
