<svg width="18" height="20" viewBox="0 0 18 20" fill="none" xmlns="http://www.w3.org/2000/svg">
<path d="M17.1205 15.8969C16.6784 14.8496 16.0368 13.8984 15.2315 13.0961C14.4286 12.2915 13.4775 11.65 12.4307 11.207C12.4213 11.2023 12.4119 11.2 12.4026 11.1953C13.8627 10.1406 14.8119 8.42266 14.8119 6.48438C14.8119 3.27344 12.2104 0.671875 8.99945 0.671875C5.78851 0.671875 3.18695 3.27344 3.18695 6.48438C3.18695 8.42266 4.13617 10.1406 5.59632 11.1977C5.58695 11.2023 5.57757 11.2047 5.5682 11.2094C4.5182 11.6523 3.57601 12.2875 2.76742 13.0984C1.96283 13.9013 1.32133 14.8524 0.878355 15.8992C0.443172 16.924 0.208468 18.0228 0.186948 19.1359C0.186323 19.161 0.19071 19.1858 0.199853 19.2091C0.208995 19.2324 0.222707 19.2537 0.24018 19.2716C0.257654 19.2895 0.278536 19.3037 0.301596 19.3134C0.324655 19.3231 0.349426 19.3281 0.374448 19.3281H1.7807C1.88382 19.3281 1.96585 19.2461 1.9682 19.1453C2.01507 17.3359 2.74164 15.6414 4.02601 14.357C5.35492 13.0281 7.11976 12.2969 8.99945 12.2969C10.8791 12.2969 12.644 13.0281 13.9729 14.357C15.2573 15.6414 15.9838 17.3359 16.0307 19.1453C16.033 19.2484 16.1151 19.3281 16.2182 19.3281H17.6244C17.6495 19.3281 17.6742 19.3231 17.6973 19.3134C17.7204 19.3037 17.7412 19.2895 17.7587 19.2716C17.7762 19.2537 17.7899 19.2324 17.799 19.2091C17.8082 19.1858 17.8126 19.161 17.8119 19.1359C17.7885 18.0156 17.5565 16.9258 17.1205 15.8969ZM8.99945 10.5156C7.92367 10.5156 6.91117 10.0961 6.14945 9.33438C5.38773 8.57266 4.9682 7.56016 4.9682 6.48438C4.9682 5.40859 5.38773 4.39609 6.14945 3.63437C6.91117 2.87266 7.92367 2.45312 8.99945 2.45312C10.0752 2.45312 11.0877 2.87266 11.8494 3.63437C12.6112 4.39609 13.0307 5.40859 13.0307 6.48438C13.0307 7.56016 12.6112 8.57266 11.8494 9.33438C11.0877 10.0961 10.0752 10.5156 8.99945 10.5156Z" fill="#262626"/>
</svg>
