<svg width="20" height="20" viewBox="0 0 20 20" fill="none" xmlns="http://www.w3.org/2000/svg">
<path d="M1.23672 10.509C1.15234 10.7902 1.11016 11.0808 1.11016 11.3762C1.11016 12.0394 1.32812 12.6769 1.72187 13.1972C1.6375 13.4785 1.59531 13.7691 1.59531 14.0644C1.59531 14.7277 1.81328 15.3652 2.20703 15.8855C2.12266 16.1668 2.08047 16.4574 2.08047 16.7527C2.08047 17.9621 2.8 19.0519 3.91563 19.5277C4.11172 19.6123 4.32318 19.6553 4.53672 19.6543L18.625 19.6543C19.0398 19.6543 19.375 19.3191 19.375 18.9043L19.375 10.373C19.375 9.95818 19.0398 9.62303 18.625 9.62303L15.5945 9.62303L13.5836 2.33865C13.2602 1.16443 12.182 0.344123 10.9633 0.344123C10.2672 0.344123 9.61797 0.620685 9.1375 1.12693C8.65703 1.63084 8.41094 2.29178 8.44609 2.98787L8.58672 5.86834L2.96406 5.86834C2.68047 5.86834 2.4039 5.94334 2.16016 6.08631C1.21328 6.63709 0.624999 7.63553 0.624999 8.68787C0.624999 9.35115 0.842967 9.98865 1.23672 10.509ZM17.6875 11.3129L17.6875 17.9691L15.7891 17.9691L15.7891 11.3129L17.6875 11.3129ZM2.9875 7.5535L10.3562 7.5535L10.1312 2.9035C10.1172 2.62459 10.2414 2.36209 10.4734 2.18865C10.6164 2.08318 10.7922 2.02928 10.968 2.03162C11.1925 2.0338 11.4103 2.10877 11.5887 2.24527C11.767 2.38177 11.8963 2.57244 11.957 2.78865L14.2891 11.2379L14.2891 17.9691L4.55312 17.9691C4.31885 17.8641 4.1199 17.6937 3.98019 17.4783C3.84049 17.2629 3.76598 17.0118 3.76562 16.7551C3.76562 16.5277 3.81953 16.3121 3.92734 16.1152L4.25312 15.5199L3.73984 15.0746C3.59537 14.9495 3.47956 14.7947 3.40029 14.6208C3.32102 14.4469 3.28015 14.2579 3.28047 14.0668C3.28047 13.8394 3.33437 13.6238 3.44219 13.4269L3.76797 12.8316L3.25469 12.3863C3.11022 12.2612 2.9944 12.1064 2.91513 11.9325C2.83586 11.7586 2.79499 11.5696 2.79531 11.3785C2.79531 11.1512 2.84922 10.9355 2.95703 10.7387L3.28516 10.141L2.77187 9.69569C2.6274 9.57056 2.51159 9.41577 2.43232 9.24186C2.35305 9.06795 2.31218 8.879 2.3125 8.68787C2.3125 8.24022 2.57031 7.80897 2.9875 7.5535Z" fill="#262626"/>
</svg>
