<svg width="20" height="22" viewBox="0 0 20 22" fill="none" xmlns="http://www.w3.org/2000/svg">
<path d="M10.5641 5.39832H9.4368C9.33367 5.39832 9.2493 5.48269 9.2493 5.58582V12.0382C9.2493 12.0991 9.27742 12.1553 9.32664 12.1905L13.2009 15.0194C13.2852 15.0804 13.4024 15.0639 13.4634 14.9796L14.1337 14.0655C14.197 13.9788 14.1782 13.8616 14.0938 13.803L10.7516 11.3866V5.58582C10.7516 5.48269 10.6673 5.39832 10.5641 5.39832ZM15.7157 7.16082L19.3907 8.05848C19.5079 8.0866 19.6227 7.99754 19.6227 7.87801L19.6415 4.09285C19.6415 3.93582 19.461 3.84676 19.3391 3.94519L15.6454 6.83035C15.6175 6.85195 15.5962 6.88098 15.5841 6.91412C15.5719 6.94726 15.5694 6.98315 15.5767 7.01767C15.5841 7.0522 15.601 7.08394 15.6256 7.10927C15.6502 7.13459 15.6814 7.15246 15.7157 7.16082ZM19.6462 14.2179L18.3173 13.7608C18.2709 13.7449 18.2202 13.7478 18.176 13.7688C18.1318 13.7899 18.0975 13.8274 18.0805 13.8733C18.036 13.9929 17.9891 14.11 17.9399 14.2272C17.5227 15.2139 16.9251 16.1022 16.161 16.8639C15.4054 17.6219 14.51 18.226 13.5243 18.6429C12.5032 19.0746 11.4056 19.2962 10.297 19.2944C9.17664 19.2944 8.09149 19.0764 7.06961 18.6429C6.08392 18.226 5.18847 17.6219 4.43289 16.8639C3.67117 16.1022 3.07352 15.2139 2.65399 14.2272C2.22465 13.2055 2.00468 12.1081 2.00711 10.9999C2.00711 9.87957 2.22508 8.79207 2.65867 7.77019C3.07586 6.78348 3.67352 5.89519 4.43758 5.13348C5.19316 4.37555 6.08861 3.77142 7.0743 3.35457C8.09149 2.92097 9.17899 2.70301 10.2993 2.70301C11.4196 2.70301 12.5048 2.92097 13.5266 3.35457C14.5123 3.77142 15.4078 4.37555 16.1634 5.13348C16.4024 5.37488 16.6274 5.62566 16.8337 5.89051L18.2352 4.79363C16.3907 2.43582 13.5196 0.919412 10.2946 0.921756C4.67899 0.924099 0.169612 5.48504 0.225862 11.103C0.282112 16.6225 4.77039 21.078 10.2993 21.078C14.647 21.078 18.3501 18.3218 19.761 14.4616C19.7962 14.3632 19.7446 14.253 19.6462 14.2179Z" fill="white"/>
</svg>
