<svg width="16" height="16" viewBox="0 0 16 16" fill="none" xmlns="http://www.w3.org/2000/svg">
<path d="M14.4999 3.9732C14.0217 4.17945 13.5014 4.32789 12.9655 4.3857C13.5219 4.05513 13.9386 3.53289 14.1374 2.91695C13.6152 3.22756 13.0432 3.44536 12.4467 3.5607C12.1974 3.29418 11.8959 3.08186 11.561 2.93696C11.226 2.79207 10.8648 2.71771 10.4999 2.71851C9.02329 2.71851 7.83579 3.91539 7.83579 5.38414C7.83579 5.59039 7.86079 5.79664 7.90142 5.99507C5.69048 5.87945 3.7186 4.8232 2.40767 3.20601C2.1688 3.61401 2.04362 4.07855 2.04517 4.55132C2.04517 5.47632 2.51548 6.29195 3.23267 6.77164C2.81002 6.75499 2.39726 6.63882 2.02798 6.43257V6.46539C2.02798 7.7607 2.9436 8.83414 4.16392 9.08101C3.93479 9.14053 3.69908 9.17098 3.46235 9.17164C3.28892 9.17164 3.12485 9.15445 2.95923 9.13101C3.29673 10.1873 4.27954 10.9545 5.44985 10.9795C4.53423 11.6966 3.38735 12.1185 2.14204 12.1185C1.9186 12.1185 1.71235 12.1107 1.49829 12.0857C2.67954 12.8435 4.0811 13.281 5.59048 13.281C10.4905 13.281 13.1717 9.22164 13.1717 5.6982C13.1717 5.58258 13.1717 5.46695 13.1639 5.35132C13.6827 4.97164 14.1374 4.50132 14.4999 3.9732Z" fill="#8C8C8C"/>
</svg>
